<?xml version="1.0" encoding="UTF-8" standalone="no"?>
<!DOCTYPE svg PUBLIC "-//W3C//DTD SVG 1.1//EN" "http://www.w3.org/Graphics/SVG/1.1/DTD/svg11.dtd">
<svg width="100%" height="100%" viewBox="0 0 697 688" version="1.1" xmlns="http://www.w3.org/2000/svg" xmlns:xlink="http://www.w3.org/1999/xlink" xml:space="preserve" xmlns:serif="http://www.serif.com/" style="fill-rule:evenodd;clip-rule:evenodd;stroke-linejoin:round;stroke-miterlimit:2;">
    <g transform="matrix(1,0,0,1,-341.378,-2228.58)">
        <g transform="matrix(1,0,0,1,78,889)">
            <path d="M708.249,1852.17C695.618,1860.68 679.776,1869.66 666.168,1875.7L674.826,1921.17C642.173,1934.32 607.471,1941.66 572.291,1942.85L561.817,1897.77C537.903,1897.74 514.111,1894.37 491.132,1887.76L468.532,1928.16C435.069,1917.25 403.774,1900.57 376.064,1878.87L397.025,1837.59C378.725,1822.2 362.668,1804.33 349.32,1784.49L306.039,1800.92C287.423,1771.06 274.178,1738.16 266.903,1703.73L309.491,1685.57C305.368,1662.02 304.56,1638.01 307.09,1614.23L263.378,1599C268.32,1564.15 279.323,1530.43 295.887,1499.38L340.175,1512.84C352.158,1492.14 366.977,1473.23 384.2,1456.63L360.511,1416.87C386.699,1393.35 416.801,1374.59 449.454,1361.43L474.719,1400.22C497.201,1392.06 520.712,1387.09 544.57,1385.45L551.989,1339.76C587.168,1338.57 622.284,1343.54 655.748,1354.45L650.168,1400.4C672.629,1408.6 693.832,1419.9 713.162,1433.98L748.216,1403.74C775.927,1425.44 799.626,1451.82 818.241,1481.68L784.427,1513.31C796.358,1534.03 805.332,1556.31 811.088,1579.52L857.377,1578.88C864.652,1613.32 865.845,1648.76 860.902,1683.61L814.676,1686.1C810.494,1709.65 803.039,1732.49 792.529,1753.97L828.392,1783.23C826.084,1787.56 823.673,1791.83 821.129,1796.01C858.565,1788.88 897.883,1800.56 925.245,1827.92C958.597,1861.27 968.545,1911.01 950.616,1954.65L945.855,1966.23L875.646,1896.01C869.391,1889.76 861.027,1886.31 852.091,1886.31C843.155,1886.31 834.797,1889.76 828.536,1896.01C815.553,1909 815.553,1930.13 828.536,1943.12L898.751,2013.33L887.173,2018.09C872.763,2024 857.683,2026.88 842.756,2026.89C812.468,2026.89 782.787,2015.05 760.457,1992.71C729.922,1962.18 718.917,1916.76 731.709,1875.63L708.249,1852.17ZM820.309,1797L820.314,1797C816.137,1803.94 811.649,1810.69 806.89,1817.23L808.758,1816.55C845.099,1803.37 886.207,1812.45 913.448,1839.7C938.954,1865.2 948.491,1901.91 939.313,1936.1L887.426,1884.21C867.94,1864.72 836.225,1864.72 816.745,1884.21C797.265,1903.7 797.265,1935.41 816.745,1954.9L868.632,2006.78C834.443,2015.96 797.737,2006.42 772.232,1980.91C744.99,1953.67 735.902,1912.59 749.081,1876.23L750.891,1871.24L721.351,1841.7C717.656,1844.64 713.871,1847.45 710.006,1850.15L710.005,1850.15C713.866,1847.45 717.648,1844.63 721.351,1841.7L609.225,1729.57L604.245,1731.38C567.893,1744.57 526.797,1735.48 499.549,1708.24C474.044,1682.73 464.501,1646.02 473.685,1611.83L525.577,1663.72C545.063,1683.21 576.773,1683.2 596.259,1663.72C615.744,1644.23 615.744,1612.52 596.259,1593.04L544.372,1541.15C578.555,1531.98 615.261,1541.51 640.772,1567.02C668.014,1594.26 677.096,1635.35 663.916,1671.71L662.107,1676.69L803.773,1818.36L806.89,1817.23C811.641,1810.68 816.114,1803.93 820.309,1797ZM703.331,1694.34L681.3,1672.31C694.092,1631.2 683.093,1585.77 652.558,1555.23C619.212,1521.89 569.472,1511.93 525.824,1529.86L514.252,1534.62L584.462,1604.83C597.444,1617.81 597.444,1638.94 584.462,1651.93C571.473,1664.92 550.346,1664.91 537.357,1651.93L467.142,1581.72L462.388,1593.29C444.453,1636.93 454.412,1686.68 487.758,1720.02C518.304,1750.56 563.739,1761.56 604.841,1748.76L630.858,1774.78C562.158,1808.83 475.468,1787.5 434.089,1721.11C390.051,1650.46 411.676,1557.33 482.349,1513.28C553.022,1469.24 646.153,1490.84 690.19,1561.5C715.973,1602.86 719.249,1651.93 703.331,1694.34Z" style="fill:rgb(164,164,164);"/>
        </g>
    </g>
</svg>
