<?xml version="1.0" encoding="UTF-8" standalone="no"?>
<!DOCTYPE svg PUBLIC "-//W3C//DTD SVG 1.1//EN" "http://www.w3.org/Graphics/SVG/1.1/DTD/svg11.dtd">
<svg width="100%" height="100%" viewBox="0 0 696 688" version="1.1" xmlns="http://www.w3.org/2000/svg" xmlns:xlink="http://www.w3.org/1999/xlink" xml:space="preserve" xmlns:serif="http://www.serif.com/" style="fill-rule:evenodd;clip-rule:evenodd;stroke-linejoin:round;stroke-miterlimit:2;">
    <g transform="matrix(1,0,0,1,-264.14,-1339)">
        <g transform="matrix(0.848659,-0.52894,0.52894,0.848659,-848.273,1570.74)">
            <path d="M1171.94,1061.49C1156.22,1062.22 1140.45,1061.48 1124.83,1059.28L1108.14,1102.42C1073.51,1096.31 1040.21,1084.19 1009.75,1066.61L1024.69,1022.83C1004.43,1010.17 986.039,994.738 970.051,976.981L929.538,999.3C906.93,972.358 889.212,941.668 877.183,908.619L916.768,884.693C909.384,861.969 905.215,838.323 904.381,814.444L859,805.5C859,770.33 865.154,735.43 877.183,702.381L922.886,709.498C931.837,687.344 943.842,666.55 958.553,647.721L929.538,611.7C952.145,584.757 979.292,561.979 1009.75,544.393L1040.19,579.223C1061.28,568.005 1083.85,559.793 1107.22,554.825L1108.14,508.58C1142.78,502.473 1178.22,502.473 1212.86,508.58L1213.78,554.825C1237.15,559.793 1259.72,568.005 1280.81,579.223L1311.25,544.393C1341.71,561.979 1368.86,584.757 1391.46,611.7L1362.45,647.721C1377.16,666.55 1389.16,687.344 1398.11,709.498L1443.82,702.381C1455.85,735.43 1462,770.33 1462,805.5L1416.62,814.444C1415.79,838.323 1411.62,861.969 1404.23,884.693L1443.82,908.619C1431.79,941.668 1414.07,972.358 1391.46,999.3L1350.95,976.981C1334.96,994.738 1316.57,1010.17 1296.31,1022.83L1311.25,1066.61C1306.69,1069.24 1302.06,1071.75 1297.36,1074.1C1293.32,1072.47 1289.17,1071.13 1284.92,1070.02L1251.42,925.693C1287.77,898.17 1311.25,854.555 1311.25,805.5C1311.25,722.299 1243.7,654.75 1160.5,654.75C1077.3,654.75 1009.75,722.299 1009.75,805.5C1009.75,884.283 1070.32,949.032 1147.38,955.645L1171.94,1061.49Z" style="fill:rgb(1,0,77);"/>
        </g>
        <g transform="matrix(5.62035,0,0,5.62035,453.586,1521.06)">
            <path d="M65.35,48.93C72.024,47.643 79.04,49.719 83.92,54.599C89.854,60.532 91.624,69.383 88.434,77.148L87.587,79.207L75.095,66.714C73.982,65.601 72.494,64.988 70.904,64.988C69.314,64.988 67.827,65.601 66.713,66.714C64.403,69.025 64.403,72.785 66.713,75.095L79.206,87.587L77.146,88.434C74.582,89.487 71.899,89.999 69.243,90C63.854,90 58.573,87.893 54.6,83.919C49.167,78.487 47.209,70.405 49.485,63.088L45.226,58.829C46.052,58.266 46.858,57.673 47.642,57.051L52.898,62.307L52.576,63.194C50.231,69.663 51.848,76.973 56.695,81.82C61.233,86.358 67.764,88.055 73.847,86.423L64.615,77.191C61.149,73.724 61.149,68.082 64.615,64.615C68.081,61.147 73.724,61.147 77.191,64.615L86.423,73.847C88.056,67.764 86.359,61.232 81.821,56.694C76.974,51.847 69.66,50.23 63.194,52.576L62.862,52.697C63.746,51.48 64.578,50.225 65.35,48.93Z" style="fill:rgb(1,0,77);"/>
        </g>
        <g transform="matrix(5.62035,0,0,5.62035,453.586,1521.06)">
            <path d="M31.556,45.159L26.912,40.515C19.599,42.791 11.515,40.835 6.08,35.401C0.147,29.468 -1.625,20.617 1.566,12.852L2.412,10.793L14.905,23.286C17.216,25.596 20.975,25.597 23.286,23.286C25.596,20.975 25.596,17.215 23.286,14.905L10.794,2.413L12.853,1.567C20.619,-1.624 29.469,0.149 35.402,6.081C40.835,11.514 42.792,19.597 40.516,26.912L44.448,30.844C44.072,31.83 43.637,32.796 43.141,33.732L37.101,27.692L37.423,26.805C39.768,20.336 38.152,13.025 33.305,8.178C28.766,3.64 22.235,1.943 16.153,3.575L25.385,12.807C28.852,16.274 28.852,21.916 25.385,25.383C21.918,28.85 16.276,28.851 12.809,25.383L3.576,16.151C1.942,22.234 3.64,28.765 8.178,33.304C13.026,38.152 20.338,39.768 26.806,37.422L27.692,37.1L34.204,43.613L33.594,44.015C32.927,44.431 32.248,44.814 31.556,45.159Z" style="fill:rgb(1,0,77);"/>
        </g>
        <g transform="matrix(5.62035,0,0,5.62035,453.586,1521.06)">
            <path d="M34.204,43.613L47.642,57.051C46.857,57.672 46.051,58.266 45.226,58.829L31.556,45.159C32.248,44.814 32.927,44.431 33.594,44.015L34.204,43.613Z" style="fill:rgb(1,0,77);"/>
        </g>
        <g transform="matrix(5.62035,0,0,5.62035,453.586,1521.06)">
            <path d="M44.448,30.844L63.088,49.485C63.834,49.253 64.588,49.064 65.35,48.93C64.574,50.222 63.745,51.479 62.862,52.697L62.307,52.898L43.141,33.732C43.634,32.794 44.069,31.829 44.448,30.844Z" style="fill:rgb(1,0,77);"/>
        </g>
    </g>
</svg>
