<?xml version="1.0" encoding="UTF-8" standalone="no"?>
<!DOCTYPE svg PUBLIC "-//W3C//DTD SVG 1.1//EN" "http://www.w3.org/Graphics/SVG/1.1/DTD/svg11.dtd">
<svg width="100%" height="100%" viewBox="0 0 706 690" version="1.1" xmlns="http://www.w3.org/2000/svg" xmlns:xlink="http://www.w3.org/1999/xlink" xml:space="preserve" xmlns:serif="http://www.serif.com/" style="fill-rule:evenodd;clip-rule:evenodd;stroke-linejoin:round;stroke-miterlimit:2;">
    <g transform="matrix(1,0,0,1,-366.157,-1881.19)">
        <g transform="matrix(0.254866,-0.00957066,0.00960212,0.255704,444.606,1829.42)">
            <path d="M1736.63,2104.58L1723.64,2109.28L1133.36,1519.01L1140.9,1498.23C1195.82,1346.74 1157.97,1175.53 1044.46,1062.02C938.17,955.753 785.226,916.012 642.797,954.23L858.993,1170.43C940.184,1251.62 940.184,1383.74 858.993,1464.93C777.802,1546.12 645.677,1546.15 564.487,1464.93L348.267,1248.74C310.002,1391.19 349.766,1544.13 456.037,1650.43C569.568,1763.96 740.802,1801.8 892.27,1746.86L913.019,1739.32L1064.75,1891.08L1064.81,1891.05L1381.51,2207.74L1381.45,2207.78L1503.3,2329.62L1495.76,2350.4C1440.84,2501.89 1478.71,2673.07 1592.21,2786.58C1698.49,2892.85 1851.43,2932.59 1993.88,2894.38L1777.69,2678.18C1696.52,2596.99 1696.52,2464.86 1777.69,2383.67C1858.85,2302.46 1991,2302.46 2072.19,2383.67L2288.39,2599.87C2326.63,2457.42 2286.89,2304.45 2180.62,2198.18C2067.11,2084.67 1888.06,2049.64 1736.63,2104.58" style="fill:white;fill-opacity:0;stroke:rgb(1,0,77);stroke-width:123.91px;"/>
        </g>
        <g transform="matrix(0.803254,-0.50064,0.50064,0.803254,-686.739,2100.53)">
            <path d="M1171.94,1061.49C1156.22,1062.22 1140.45,1061.48 1124.83,1059.28L1108.14,1102.42C1073.51,1096.31 1040.21,1084.19 1009.75,1066.61L1024.69,1022.83C1004.43,1010.17 986.039,994.738 970.051,976.981L929.538,999.3C906.93,972.358 889.212,941.668 877.183,908.619L916.768,884.693C909.384,861.969 905.215,838.323 904.381,814.444L859,805.5C859,770.33 865.154,735.43 877.183,702.381L922.886,709.498C931.837,687.344 943.842,666.55 958.553,647.721L929.538,611.7C952.145,584.757 979.292,561.979 1009.75,544.393L1040.19,579.223C1061.28,568.005 1083.85,559.793 1107.22,554.825L1108.14,508.58C1142.78,502.473 1178.22,502.473 1212.86,508.58L1213.78,554.825C1237.15,559.793 1259.72,568.005 1280.81,579.223L1311.25,544.393C1341.71,561.979 1368.86,584.757 1391.46,611.7L1362.45,647.721C1377.16,666.55 1389.16,687.344 1398.11,709.498L1443.82,702.381C1455.85,735.43 1462,770.33 1462,805.5L1416.62,814.444C1415.79,838.323 1411.62,861.969 1404.23,884.693L1443.82,908.619C1431.79,941.668 1414.07,972.358 1391.46,999.3L1350.95,976.981C1334.96,994.738 1297.41,1015.07 1277.15,1027.73L1251.42,925.693C1287.77,898.17 1311.25,854.555 1311.25,805.5C1311.25,722.299 1243.7,654.75 1160.5,654.75C1077.3,654.75 1009.75,722.299 1009.75,805.5C1009.75,884.283 1070.32,949.032 1147.38,955.645L1171.94,1061.49Z" style="fill:rgb(1,0,77);"/>
        </g>
    </g>
</svg>
